<?xml version="1.0" encoding="utf-8"?>
<!-- Generator: Adobe Illustrator 26.1.0, SVG Export Plug-In . SVG Version: 6.00 Build 0)  -->
<svg version="1.1" id="Layer_1" xmlns="http://www.w3.org/2000/svg" xmlns:xlink="http://www.w3.org/1999/xlink" x="0px" y="0px"
	 viewBox="0 0 50 50" style="enable-background:new 0 0 50 50;" xml:space="preserve">
<style type="text/css">
	.st0{fill:#FFFFFF;}
</style>
<g>
	<circle class="st0" cx="25" cy="14" r="13.5"/>
	<path class="st0" d="M25,1c7.2,0,13,5.8,13,13s-5.8,13-13,13s-13-5.8-13-13S17.8,1,25,1 M25,0c-7.7,0-14,6.3-14,14s6.3,14,14,14
		s14-6.3,14-14S32.7,0,25,0L25,0z"/>
</g>
<g>
	<ellipse class="st0" cx="25" cy="48" rx="26.5" ry="19.5"/>
	<path class="st0" d="M25,29c14.3,0,26,8.5,26,19S39.3,67,25,67S-1,58.5-1,48S10.7,29,25,29 M25,28C10.1,28-2,37-2,48s12.1,20,27,20
		s27-9,27-20S39.9,28,25,28L25,28z"/>
</g>
</svg>
